<?xml version="1.0" encoding="utf-8"?>
<!-- Generator: Adobe Illustrator 14.0.0, SVG Export Plug-In . SVG Version: 6.00 Build 43363)  -->
<!DOCTYPE svg PUBLIC "-//W3C//DTD SVG 1.1//EN" "http://www.w3.org/Graphics/SVG/1.1/DTD/svg11.dtd">
<svg version="1.1" id="Layer_2" xmlns="http://www.w3.org/2000/svg" xmlns:xlink="http://www.w3.org/1999/xlink" x="0px" y="0px"
	 width="800px" height="720px" viewBox="0 0 800 720" enable-background="new 0 0 800 720" xml:space="preserve">
<path fill="#C33C54" stroke="#B3736B" stroke-width="9" d="M400.02,288.204c51.025,4.042,154.841,56.379,177.32,102.364
	c22.473,45.987,28.646,162.331,0.003,204.746c-28.642,42.422-126.255,105.963-177.314,102.375
	c-51.062-3.586-151.323-58.271-177.315-102.368c-25.992-44.091-25.593-160.414,0-204.743
	C248.306,346.252,348.994,284.157,400.02,288.204z"/>
<path fill="#C33C54" d="M341.153,146.316c-22.739,4.102-59.942-5.714-78.266-5.368c-24.917,0.459-76.611,65.101-76.611,65.101
	s48.943,12.709,76.606,20.871c23.58,6.958,84.195-6.806,116.59-15.144C363.189,195.6,349.049,165.437,341.153,146.316z"/>
<path fill="#C33C54" d="M356.921,137.907c13.792,33.464,33.798,67.232,43.887,67.241l0,0c9.664,0,28.959-32.546,42.312-64.823
	c-6.655-10.717,4.64-38.312,2.46-50.481c-3.601-20.078-45.616-67.678-45.616-67.678s-42.002,47.596-45.614,67.674
	C352.276,101.393,362.851,127.38,356.921,137.907z"/>
<path fill="#C33C54" d="M537.028,140.948c-18.264-0.104-55.148,10.756-77.947,7.312c-7.611,18.398-21.365,47.733-37.246,63.589
	c32.073,8.348,91.694,21.994,115.204,15.066c27.667-8.157,76.684-20.871,76.684-20.871S561.951,141.092,537.028,140.948z"/>
</svg>
